<?xml version="1.0" encoding="utf-8"?>
<!-- Generator: Adobe Illustrator 21.0.2, SVG Export Plug-In . SVG Version: 6.00 Build 0)  -->
<svg version="1.1" id="Layer_1" xmlns="http://www.w3.org/2000/svg" xmlns:xlink="http://www.w3.org/1999/xlink" x="0px" y="0px"
	 viewBox="0 0 800 600" style="enable-background:new 0 0 800 600;" xml:space="preserve">
<style type="text/css">
	.st0{fill:none;}
	.st1{fill:#EB4B87;}
	.st2{fill:#E16629;}
	.st3{fill:#8D78B3;}
	.st4{fill:#3BBAE8;}
	.st5{display:none;fill:#3BBAE8;stroke:#A9BE37;stroke-width:6;stroke-miterlimit:10;}
	.st6{display:none;fill:none;stroke:#98C8C8;stroke-width:6;stroke-miterlimit:10;}
	.st7{display:none;fill:#8D78B3;stroke:#3BBAE8;stroke-width:10;stroke-miterlimit:10;}
	.st8{display:none;fill:#98C8C8;stroke:#E16629;stroke-width:3;stroke-miterlimit:10;}
	.st9{display:none;fill:none;stroke:#8D78B3;stroke-width:6;stroke-miterlimit:10;}
	.st10{display:none;fill:#8D78B3;stroke:#A9BE37;stroke-width:6;stroke-miterlimit:10;}
	.st11{display:none;fill:#3BBAE8;stroke:#E16629;stroke-width:3;stroke-miterlimit:10;}
	.st12{display:none;fill:#A9BE37;stroke:#3BBAE8;stroke-width:6;stroke-miterlimit:10;}
	.st13{clip-path:url(#SVGID_2_);fill:#8D78B3;stroke:#3BBAE8;stroke-width:10;stroke-miterlimit:10;}
	.st14{clip-path:url(#SVGID_2_);fill:#8D78B3;stroke:#3BBAE8;stroke-width:7;stroke-miterlimit:10;}
	.st15{clip-path:url(#SVGID_2_);fill:#E16629;stroke:#8D78B3;stroke-width:7;stroke-miterlimit:10;}
	.st16{clip-path:url(#SVGID_2_);fill:#3BBAE8;stroke:#EB4B87;stroke-width:10;stroke-miterlimit:10;}
	.st17{clip-path:url(#SVGID_2_);fill:#3BBAE8;stroke:#EB4B87;stroke-width:7;stroke-miterlimit:10;}
	.st18{clip-path:url(#SVGID_2_);fill:#98C8C8;stroke:#8D78B3;stroke-width:7;stroke-miterlimit:10;}
	.st19{clip-path:url(#SVGID_2_);fill:#E16629;stroke:#A9BE37;stroke-width:10;stroke-miterlimit:10;}
	.st20{clip-path:url(#SVGID_2_);fill:#E16629;stroke:#A9BE37;stroke-width:6;stroke-miterlimit:10;}
	.st21{clip-path:url(#SVGID_2_);fill:#98C8C8;stroke:#E16629;stroke-width:3;stroke-miterlimit:10;}
	.st22{clip-path:url(#SVGID_2_);}
	.st23{clip-path:url(#SVGID_2_);fill:url(#SVGID_3_);}
	.st24{fill:#98C8C8;}
	.st25{fill:none;stroke:#E16629;stroke-width:6;stroke-miterlimit:10;}
	.st26{fill:none;stroke:#EB4B87;stroke-width:6;stroke-miterlimit:10;}
	.st27{fill:#A9BE37;}
	.st28{fill:none;stroke:#98C8C8;stroke-width:6;stroke-miterlimit:10;}
	.st29{fill:none;stroke:#3BBAE8;stroke-width:6;stroke-miterlimit:10;}
	.st30{fill:none;stroke:#8D78B3;stroke-width:6;stroke-miterlimit:10;}
	.st31{fill:none;stroke:#8D78B3;stroke-width:3;stroke-miterlimit:10;}
	.st32{fill:none;stroke:#A9BE37;stroke-width:3;stroke-miterlimit:10;}
	.st33{clip-path:url(#SVGID_2_);fill:#98C8C8;stroke:#E16629;stroke-width:6;stroke-miterlimit:10;}
	.st34{clip-path:url(#SVGID_2_);fill:#E16629;stroke:#3BBAE8;stroke-width:6;stroke-miterlimit:10;}
	.st35{clip-path:url(#SVGID_2_);fill:#A9BE37;stroke:#8D78B3;stroke-width:6;stroke-miterlimit:10;}
	.st36{clip-path:url(#SVGID_2_);fill:#8D78B3;stroke:#EB4B87;stroke-width:6;stroke-miterlimit:10;}
	.st37{clip-path:url(#SVGID_2_);fill:#A9BE37;stroke:#98C8C8;stroke-width:6;stroke-miterlimit:10;}
	.st38{clip-path:url(#SVGID_2_);fill:none;stroke:#3BBAE8;stroke-width:6;stroke-miterlimit:10;}
	.st39{clip-path:url(#SVGID_2_);fill:none;stroke:#8D78B3;stroke-width:6;stroke-miterlimit:10;}
	.st40{clip-path:url(#SVGID_2_);fill:none;stroke:#A9BE37;stroke-width:6;stroke-miterlimit:10;}
	.st41{clip-path:url(#SVGID_2_);fill:none;stroke:#E16629;stroke-width:6;stroke-miterlimit:10;}
	.st42{clip-path:url(#SVGID_2_);fill:none;stroke:#EB4B87;stroke-width:6;stroke-miterlimit:10;}
	.st43{clip-path:url(#SVGID_2_);fill:none;stroke:#98C8C8;stroke-width:6;stroke-miterlimit:10;}
	.st44{clip-path:url(#SVGID_2_);fill:url(#SVGID_4_);}
	.st45{clip-path:url(#SVGID_2_);fill:url(#SVGID_5_);}
	.st46{clip-path:url(#SVGID_2_);fill:url(#SVGID_6_);}
	.st47{clip-path:url(#SVGID_2_);fill:#EB4B87;stroke:#A9BE37;stroke-width:10;stroke-miterlimit:10;}
	.st48{clip-path:url(#SVGID_2_);fill:#A9BE37;stroke:#8D78B3;stroke-width:7;stroke-miterlimit:10;}
	.st49{clip-path:url(#SVGID_2_);fill:#8D78B3;stroke:#98C8C8;stroke-width:3;stroke-miterlimit:10;}
	.st50{clip-path:url(#SVGID_2_);fill:#A9BE37;stroke:#3BBAE8;stroke-width:6;stroke-miterlimit:10;}
	.st51{clip-path:url(#SVGID_2_);fill:#3BBAE8;stroke:#A9BE37;stroke-width:6;stroke-miterlimit:10;}
	.st52{clip-path:url(#SVGID_2_);fill:#EB4B87;stroke:#3BBAE8;stroke-width:10;stroke-miterlimit:10;}
</style>
<pattern  width="25" height="25" patternUnits="userSpaceOnUse" id="New_Pattern" viewBox="0 -25 25 25" style="overflow:visible;">
	<g>
		<rect y="-25" class="st0" width="25" height="25"/>
		<g>
			<circle class="st1" cx="12.5" cy="-12.5" r="3.5"/>
			<circle class="st1" cx="12.5" cy="-12.5" r="3.5"/>
		</g>
	</g>
</pattern>
<pattern  width="25" height="25" patternUnits="userSpaceOnUse" id="New_Pattern_2" viewBox="0 -25 25 25" style="overflow:visible;">
	<g>
		<rect y="-25" class="st0" width="25" height="25"/>
		<g>
			<circle class="st2" cx="12.5" cy="-12.5" r="3.5"/>
			<circle class="st2" cx="12.5" cy="-12.5" r="3.5"/>
		</g>
	</g>
</pattern>
<pattern  width="25" height="25" patternUnits="userSpaceOnUse" id="New_Pattern_4" viewBox="0 -25 25 25" style="overflow:visible;">
	<g>
		<rect y="-25" class="st0" width="25" height="25"/>
		<g>
			<circle class="st3" cx="12.5" cy="-12.5" r="3.5"/>
			<circle class="st3" cx="12.5" cy="-12.5" r="3.5"/>
		</g>
	</g>
</pattern>
<pattern  width="25" height="25" patternUnits="userSpaceOnUse" id="New_Pattern_5" viewBox="0 -25 25 25" style="overflow:visible;">
	<g>
		<rect y="-25" class="st0" width="25" height="25"/>
		<g>
			<circle class="st4" cx="12.5" cy="-12.5" r="3.5"/>
			<circle class="st4" cx="12.5" cy="-12.5" r="3.5"/>
		</g>
	</g>
</pattern>
<polyline class="st5" points="258.5,273.6 299.9,314.4 263.3,337.4 307.3,376.2 "/>
<polyline class="st6" points="-37,153.4 45.9,168.4 85.2,129.8 "/>
<rect x="222.7" y="202.4" transform="matrix(0.5658 0.8245 -0.8245 0.5658 285.5834 -102.5608)" class="st7" width="34.9" height="34.9"/>
<polygon class="st8" points="331.2,209.5 370.7,222.2 373,214.9 333.5,202.2 346.2,162.6 338.9,160.3 326.2,199.8 286.7,187.1 
	284.3,194.4 323.9,207.1 311.1,246.7 318.5,249 "/>
<polyline class="st9" points="311.1,423.8 352.7,361.9 388.1,365.3 "/>
<polyline class="st10" points="396.5,110.7 432.8,158.8 479.9,113.8 "/>
<polygon class="st11" points="606.5,308.2 584.3,282.6 589.1,278.5 611.3,304.1 636.8,281.9 640.9,286.6 615.4,308.8 637.6,334.4 
	632.9,338.5 610.6,312.9 585.1,335.1 581,330.4 "/>
<polyline class="st12" points="523.4,448.2 559.1,367.9 540.4,326.9 "/>
<polyline class="st6" points="538.3,274.1 507.7,222.9 468.8,219.9 "/>
<g>
	<defs>
		<rect id="SVGID_1_" width="799" height="598.6"/>
	</defs>
	<clipPath id="SVGID_2_">
		<use xlink:href="#SVGID_1_"  style="overflow:visible;"/>
	</clipPath>
	<rect x="113" y="-473" class="st13" width="64.2" height="64.2"/>
	
		<rect x="-40.7" y="232.8" transform="matrix(0.8245 0.5658 -0.5658 0.8245 148.3541 51.3508)" class="st13" width="64.2" height="64.2"/>
	<path class="st14" d="M577.3,387.2l20.1,58.8l58.8-20.1l-20.1-58.8L577.3,387.2z M631.7,413.8l-22.1,7.6l-7.6-22.1l22.1-7.6
		L631.7,413.8z"/>
	<path class="st14" d="M113.9-395.1l0.2,62.2l62.2-0.2l-0.2-62.2L113.9-395.1z M156.8-352.5l-23.4,0.1l-0.1-23.4l23.4-0.1
		L156.8-352.5z"/>
	<path class="st15" d="M770.3,56.1l-22.8,60l60,22.8l22.8-60L770.3,56.1z M795.9,113.1l-22.6-8.6l8.6-22.6l22.6,8.6L795.9,113.1z"/>
	<circle class="st16" cx="306.8" cy="-440.9" r="32.7"/>
	<circle class="st16" cx="160.2" cy="204.9" r="32.7"/>
	<circle class="st16" cx="629.9" cy="584" r="32.7"/>
	<path class="st17" d="M306.8-385.5c-18.1,0-32.7,14.7-32.7,32.7c0,18.1,14.7,32.7,32.7,32.7c18.1,0,32.7-14.7,32.7-32.7
		C339.5-370.9,324.9-385.5,306.8-385.5z M306.8-340.1c-7,0-12.7-5.7-12.7-12.7s5.7-12.7,12.7-12.7c7,0,12.7,5.7,12.7,12.7
		S313.8-340.1,306.8-340.1z"/>
	<path class="st18" d="M56.9-14.8C31.3-14.8,10.5,6,10.5,31.6c0,25.6,20.8,46.3,46.3,46.3c25.6,0,46.3-20.8,46.3-46.3
		C103.2,6,82.5-14.8,56.9-14.8z M56.9,49.6c-9.9,0-18-8.1-18-18s8.1-18,18-18c9.9,0,18,8.1,18,18S66.8,49.6,56.9,49.6z"/>
	<polygon class="st19" points="473.2,-476.8 435.1,-410.9 511.2,-410.9 	"/>
	<polygon class="st19" points="387.5,555.8 336.8,582.8 385.5,613.3 	"/>
	<path class="st20" d="M473.2-385.8l-38.1,65.9h76.1L473.2-385.8z M473.2-361.8l17.3,29.9h-34.5L473.2-361.8z"/>
	<polygon class="st21" points="29.4,576.6 50.5,612.3 43.9,616.3 22.8,580.5 -13,601.6 -16.9,595 18.9,573.9 -2.3,538.1 4.3,534.2 
		25.5,570 61.2,548.9 65.1,555.5 	"/>
	<path class="st22" d="M387.3-473.6c-18.1,0-32.7,14.7-32.7,32.7c0,18.1,14.7,32.8,32.7,32.8c18.1,0,32.7-14.7,32.7-32.8
		C420.1-459,405.4-473.6,387.3-473.6z M387.3-415.6c-14,0-25.3-11.3-25.3-25.3c0-14,11.3-25.3,25.3-25.3c14,0,25.3,11.3,25.3,25.3
		C412.6-426.9,401.3-415.6,387.3-415.6z"/>
	<path class="st22" d="M564.3-476.8l-38,65.9h76.1L564.3-476.8z M564.3-459.4l22.9,39.7h-45.8L564.3-459.4z"/>
	<path class="st22" d="M193.5-471.6v64.2h64.2v-64.2H193.5z M246.3-418.8h-41.5v-41.5h41.5V-418.8z"/>
	
		<pattern  id="SVGID_3_" xlink:href="#New_Pattern" patternTransform="matrix(0.2934 6.237351e-02 -6.237351e-02 0.2934 -5945.4712 -4701.4155)">
	</pattern>
	<rect x="812" y="-555.8" class="st23" width="552.5" height="280.4"/>
	<g class="st22">
		<polyline class="st24" points="-132.5,-248.2 -105.4,-245 -104.1,-272.3 -77,-269 -75.7,-296.3 -48.5,-293.1 		"/>
		<polyline class="st25" points="-132.5,-248.2 -105.4,-245 -104.1,-272.3 -77,-269 -75.7,-296.3 -48.5,-293.1 		"/>
	</g>
	<g class="st22">
		<polyline class="st24" points="120.9,458.9 146.3,469.1 154.6,443.1 180,453.3 188.4,427.3 213.7,437.5 		"/>
		<polyline class="st25" points="120.9,458.9 146.3,469.1 154.6,443.1 180,453.3 188.4,427.3 213.7,437.5 		"/>
	</g>
	<g class="st22">
		<polyline class="st24" points="390.7,82.2 392.2,109.4 419.3,106 420.8,133.2 447.9,129.8 449.4,157.1 		"/>
		<polyline class="st26" points="390.7,82.2 392.2,109.4 419.3,106 420.8,133.2 447.9,129.8 449.4,157.1 		"/>
	</g>
	<g class="st22">
		<polyline class="st27" points="889.2,172.9 861.9,150.1 852.9,184.5 825.6,161.7 816.6,196.1 789.3,173.3 780.3,207.7 753,184.9 
			744,219.2 		"/>
		<polyline class="st28" points="889.2,172.9 861.9,150.1 852.9,184.5 825.6,161.7 816.6,196.1 789.3,173.3 780.3,207.7 753,184.9 
			744,219.2 		"/>
	</g>
	<g class="st22">
		<polyline class="st1" points="362.4,486.3 386.3,512.6 399.9,479.7 423.9,506 437.5,473.2 461.4,499.5 475,466.6 498.9,492.9 
			512.6,460.1 		"/>
		<polyline class="st29" points="362.4,486.3 386.3,512.6 399.9,479.7 423.9,506 437.5,473.2 461.4,499.5 475,466.6 498.9,492.9 
			512.6,460.1 		"/>
	</g>
	<g class="st22">
		<path class="st25" d="M508.2-192.7c8.2-10.2,23.8,2.4,32-7.8c8.2-10.2-7.3-22.8,0.9-32.9c8.2-10.2,23.8,2.4,32-7.8
			c8.2-10.2-7.3-22.8,0.9-32.9c8.2-10.2,23.8,2.4,32-7.8"/>
	</g>
	<g class="st22">
		<path class="st25" d="M273.9,302.5c-6.2-7.8,9.6-20.2,3.4-28c-6.2-7.8-21.9,4.5-28.1-3.3c-6.2-7.8,9.6-20.2,3.4-28
			c-6.2-7.8-21.9,4.5-28.1-3.3c-6.2-7.8,9.6-20.2,3.4-28"/>
	</g>
	<g class="st22">
		<path class="st30" d="M713.4,60.5c9.1-9.4,23.5,4.6,32.6-4.8c9.1-9.4-5.2-23.3,4-32.7c9.1-9.4,23.5,4.6,32.6-4.8
			c9.1-9.4-5.2-23.3,4-32.7c9.1-9.4,23.5,4.6,32.6-4.8"/>
	</g>
	<g class="st22">
		<path class="st30" d="M808.3,401.8c-5.7-11.8,12.3-20.5,6.6-32.3c-5.7-11.8-23.7-3.1-29.4-14.9c-5.7-11.8,12.3-20.5,6.6-32.3
			c-5.7-11.8-23.7-3.1-29.4-14.9c-5.7-11.8,12.3-20.5,6.6-32.3"/>
	</g>
	<g class="st22">
		<path class="st26" d="M221,550.1c8.1,3.2,0.7,21.8,8.8,25c8.1,3.2,15.4-15.4,23.5-12.3c8.1,3.2,0.7,21.8,8.8,25
			c8.1,3.2,15.4-15.4,23.5-12.3c8.1,3.2,0.7,21.8,8.8,25"/>
	</g>
	<g class="st22">
		<path class="st25" d="M119.6,75.7c10.3-8.1,22.7,7.6,32.9-0.5c10.3-8.1-2.1-23.8,8.2-31.9c10.3-8.1,22.7,7.6,32.9-0.5
			c10.3-8.1-2.1-23.8,8.2-31.9c10.3-8.1,22.7,7.6,33-0.5"/>
	</g>
	<g class="st22">
		<path class="st31" d="M-143.4-296.1c-9.7,1-11.1-13-20.8-12c-9.7,1-8.3,14.9-18,15.9c-9.7,1-11.1-13-20.8-12
			c-9.7,1-8.3,14.9-18,15.9c-9.7,1-11.1-13-20.8-12c-9.7,1-8.3,14.9-18,15.9c-9.7,1-11.1-13-20.8-12s-8.3,14.9-18,15.9"/>
	</g>
	<g class="st22">
		<path class="st32" d="M656.3,330c2.2-5.8,15.3-0.7,17.5-6.5c2.2-5.8-10.8-10.8-8.6-16.6c2.2-5.8,15.3-0.7,17.5-6.5
			c2.2-5.8-10.8-10.8-8.6-16.6c2.2-5.8,15.3-0.7,17.5-6.5c2.2-5.8-10.8-10.8-8.6-16.6c2.2-5.8,15.3-0.7,17.5-6.5
			c2.2-5.8-10.8-10.8-8.6-16.6"/>
	</g>
	<g class="st22">
		<path class="st31" d="M604.7,669.7c-5.2-8.2,6.7-15.7,1.5-23.9c-5.2-8.2-17-0.8-22.2-9c-5.2-8.2,6.7-15.7,1.5-23.9
			c-5.2-8.2-17-0.8-22.2-9c-5.2-8.2,6.7-15.7,1.5-23.9c-5.2-8.2-17-0.8-22.2-9c-5.2-8.2,6.7-15.7,1.5-23.9c-5.2-8.2-17-0.8-22.2-9"
			/>
	</g>
	<polyline class="st33" points="113,-307.3 199.8,-293.6 234.6,-322.3 	"/>
	<polyline class="st33" points="414.1,603.2 492.3,583.9 511.5,547.3 	"/>
	<polyline class="st34" points="49.5,452.8 86.6,532.4 129.8,545.3 	"/>
	<polyline class="st35" points="11.9,-312.8 -17.1,-264.8 22.8,-250.2 -9,-203.6 	"/>
	<polyline class="st36" points="627.3,-24 598.4,24 638.2,38.6 606.4,85.2 	"/>
	<polyline class="st34" points="360.2,149.2 304.2,149.2 312.3,190.9 256,187.7 	"/>
	<polyline class="st34" points="109.2,-266 43.1,-253.5 64.9,-184.9 	"/>
	<polyline class="st34" points="503,95.2 578.8,57.8 529.4,-17.8 	"/>
	<polyline class="st37" points="240.2,434.8 251.1,518.6 338.6,496.2 	"/>
	<polyline class="st38" points="261,-219.8 304.1,-276 347.2,-276 	"/>
	<polyline class="st38" points="369.2,42.9 451.2,36.7 470.9,-1.7 	"/>
	<polyline class="st39" points="208.1,523.2 146.2,564.8 149.6,600.2 	"/>
	<polyline class="st39" points="162.5,-247.9 203,-241 243.5,-189.9 	"/>
	<polyline class="st40" points="370.8,-183.7 319.5,-218.9 399.9,-264.7 	"/>
	<polyline class="st40" points="358.3,35 307,-0.2 387.4,-46.1 	"/>
	<polyline class="st40" points="718.2,32.1 675.2,-12.8 643,74 	"/>
	<polyline class="st41" points="412.7,-179.9 445.6,-202.4 420.6,-285.3 	"/>
	<polyline class="st40" points="123.6,152.5 154,119.6 266.4,144.5 	"/>
	<polyline class="st42" points="469.3,-179.9 485.8,-243.5 469.3,-285.3 	"/>
	<polyline class="st43" points="167.5,-271 250.3,-256 289.7,-294.7 	"/>
	
		<pattern  id="SVGID_4_" xlink:href="#New_Pattern_4" patternTransform="matrix(0.2934 6.237351e-02 -6.237351e-02 0.2934 -5953.5708 -4694.9121)">
	</pattern>
	<path class="st44" d="M515.1-37.7c-2.3-10.8-9.8-22.7-19.5-28.4c-21.3-12.5-48.2-7.7-62.2,13.2c-8.4,12.5-17.1,24.7-26.6,36.3
		c-9.3,10.3-19.4,19.9-30.5,28.2c-6.3,3.9-12.8,7.3-19.6,10.1c-7.2,2.1-14.4,3.5-21.8,4.4c-20.4,1-40.9-1-61.2-2.2
		c-21.3-1.3-42.6-2.3-63.9-2.4c-45.7-0.2-92.6,3.1-136.4,16.7C51.7,44.8,30.7,52.9,11,63.9C-7.6,74.2-25.4,86.5-41.8,99.9
		c-30.6,25.1-57.1,56.1-78.9,89c-11.4,17.1-21.4,35.1-30.2,53.7c-6.3,13.2-12.8,26.4-17.5,40.3c-4.9,14.7-8.3,30.9-7.4,46.4
		c0.7,12.1,2.9,22.6,11.3,32c7.4,8.4,20.2,15,31.6,15.1c11.4,0,23.5-3.1,32-11.3c8.1-7.9,15.8-19.7,15.1-31.6
		c-0.3-4.4-0.1-8.8,0.3-13.1c2.8-11.4,7.3-22.3,12.2-33c14.6-29.7,32.3-57.9,53.4-83.4c16.5-18.6,34.9-35.4,55.1-49.8
		c16.5-10.7,34.1-19.6,52.5-26.6c23.9-7.8,48.6-12.3,73.6-14.8c48.5-3.3,96.6,1.2,145,3.2c16,0.6,32,0,48-1.9
		c14.9-1.8,29.3-6.4,43.2-12.1c22.2-9.1,42.7-24.4,59.7-41.3c19.5-19.5,36.4-41.7,51.7-64.5C515.2-13.4,517.4-26.6,515.1-37.7z"/>
	
		<pattern  id="SVGID_5_" xlink:href="#New_Pattern_2" patternTransform="matrix(-0.2438 -0.1749 0.1752 -0.2453 -8391.9326 -10458.6699)">
	</pattern>
	<path class="st45" d="M-476.8,720c3.4,10.7,12.4,21.9,22.8,26.5c22.8,10.1,48.5,1.8,60.4-20.6c0.8-1.6,1.7-3.1,2.6-4.7
		c3.3-4.3,6.8-8.4,10.7-12.2c4.1-3.2,8.4-6,12.9-8.6c3.6-1.4,7.2-2.7,10.9-3.7c2.7-0.3,5.4-0.5,8.2-0.5c4.8,0.7,9.4,1.8,14,3.1
		c17.6,6.8,34,16.1,51.7,22.6c12.6,4.6,25,9,38.4,10.2c17.2,1.6,33.4,0.8,50.1-4.7c22.7-7.5,41.8-21.6,60.2-36.3
		c19.4-15.6,39.2-30.5,59.7-44.6c19.5-13.5,39.4-26.8,60.6-37.7c9.8-4.4,19.8-8.1,30.2-10.6c5.8-0.8,11.6-1.2,17.5-1.1
		c6.6,0.9,13.2,2.3,19.6,4.2c24.2,9.4,45.9,24.2,67.5,38.5c11.5,7.6,23,15.3,35.1,22.1c14.9,8.5,30.2,14.7,46.5,20.1
		c33.4,10.9,70.6,8.3,103.2-4.3c17.2-6.6,33.7-15.3,49.7-24.5c14-8,27.9-16.4,41.1-25.6c38-26.6,70.9-61.4,81.3-108
		c2.5-11.2-0.2-24.5-6.5-33.9c-6.1-9.2-17.4-17.6-28.5-19.3c-24.4-3.9-47.7,10.6-53.2,35.3c-0.4,1.6-0.8,3.2-1.2,4.8
		c-1.9,4.5-4,8.8-6.5,13c-5.5,7.3-11.7,14-18.3,20.2c-12,9.8-24.8,18.4-38,26.5c-12,7.4-24.2,14.6-36.7,21
		c-9.5,4.3-19.3,7.9-29.4,10.4c-5.3,0.7-10.7,1-16.1,1c-6.5-0.9-12.8-2.2-19.1-4.1c-25-9.7-47.3-25.2-69.6-40
		c-26.8-17.8-53.7-33.5-84.8-42.3c-74.4-21-143.8,23.8-202.2,65c-16.6,11.7-32.8,23.9-48.7,36.7c-11.5,9.2-22.9,18.6-35.7,25.8
		c-2.8,1.1-5.7,2.1-8.6,2.9c-2.1,0.2-4.2,0.3-6.4,0.3c-4.6-0.7-9.1-1.8-13.6-3.1c-25.9-9.9-49.8-24.3-77.1-30.7
		c-20-4.7-40-3.6-59.8,1.1c-8.4,2-16,5.5-23.8,9.3c-8,3.9-15.6,7.9-22.7,13.2c-19.1,14.5-34.3,31.9-45.6,53.2
		C-479.5,695.9-480.1,709.5-476.8,720z"/>
	
		<pattern  id="SVGID_6_" xlink:href="#New_Pattern_5" patternTransform="matrix(0.2932 -5.575150e-02 -5.705650e-02 -0.2943 -5894.0459 -9878.2598)">
	</pattern>
	<path class="st46" d="M796.8-22.2c10.9,2.4,22.9,10.2,28.6,20.1c5.7,9.9,8.9,22,6,33.4c-1.4,3.8-2.7,7.5-4.1,11.3
		c-3.7,7.2-9,12.9-15.8,17.2c-6.9,5.3-13.7,10.6-20.5,16.1c-18.1,15.2-35.4,31.2-52,48c-12.7,12.9-25.9,26.2-37.6,40.3
		c5.6,3.1,11.5,5.7,17.5,8.1c28.6,9.7,58.2,15.7,86.2,27.5c21.8,9.2,42,25.7,49.1,49.1c2.8,9.2,3.5,20.1,1.5,29.5
		c-2.4,11.2-7.5,19.9-14.5,28.8c-6.7,8.5-16.3,15.4-24.6,22c-8.1,6.5-16.6,12.4-25.1,18.4c10.7,2.9,21.3,5.8,31.8,9.2
		c37.1,12,80.5,28.2,95,68.4c12.5,34.7-6.4,69.5-31.2,92.8c-22.7,21.3-46,42.1-69,63.1l-19,17.4c13,0.8,26.1,1.8,39.1,3.4
		c10.5,1.3,21.1,2.9,31.2,6.3c15.9,5.3,31.8,12.2,43,25.3c8.1,9.5,12.5,15.9,17.1,27.7c2.8,7.2,4.2,15.4,4.7,23
		c1.9,28.3-11.1,58.3-30.9,78c-11.6,11.6-25.4,20.9-39.6,29c-12.2,6.9-24.6,13.3-35.8,21.6c-8.6,6.4-23,8-33.2,5.8
		c-10.9-2.4-22.9-10.2-28.6-20.1c-5.7-9.9-8.9-22-6-33.4c3.2-12.2,9.8-21.1,19.9-28.6c17.8-13.1,38.5-21.5,56.2-34.5
		c1.9-1.8,3.6-3.7,5.3-5.6c0.5-0.8,1-1.7,1.4-2.6c-10.2-2.6-20.7-3.9-31.1-4.9c-22.3-1.7-44.7-1.9-67-3.2c-17.6-1-36.6-0.5-52.7-9
		c-27.1-14.3-36.4-47.6-23.1-74.5c6.4-12.9,16.9-21.7,27.2-31.2c9.5-8.7,18.9-17.3,28.4-26c18.9-17.3,37.9-34.7,56.8-52
		c10.7-9.8,21.4-19.5,32.1-29.3c3.9-3.6,7.8-7.1,11.5-10.8c-4.7-2.3-9.5-4.3-14.3-6.2c-31.2-10.7-63.6-17.2-94.5-29
		c-17.3-6.6-30.3-19.6-37.2-36.8c-6.4-16-3.7-35.1,4.5-49.9c11-19.9,27.3-34.7,44.9-48.5c4.5-3.5,9.1-6.9,13.7-10.2
		c-12.7-3.6-25.6-6.9-38.2-11c-13.5-4.3-27.1-9.1-39.8-15.5c-12.9-6.5-26.2-14.8-36.2-25.2c-17.3-18-27.2-42-21.6-67.1
		c3.9-17.7,14.3-32.2,25.7-45.8c17.2-20.5,35.5-40.1,54.7-58.6c24.3-23.4,50.1-45.2,77-65.6C772-22.8,786.8-24.4,796.8-22.2z"/>
	<circle class="st47" cx="389.2" cy="286.4" r="32.7"/>
	<path class="st48" d="M-3.5,392.9c0-15.3,12.4-27.7,27.7-27.7c15.3,0,27.7,12.4,27.7,27.7c0,15.3-12.4,27.7-27.7,27.7
		C8.8,420.5-3.5,408.1-3.5,392.9z M34.9,392.9c0-5.9-4.8-10.8-10.8-10.8s-10.8,4.8-10.8,10.8c0,5.9,4.8,10.8,10.8,10.8
		S34.9,398.8,34.9,392.9z"/>
	<polygon class="st49" points="704.3,498.2 742.1,515.4 745.2,508.4 707.4,491.2 724.6,453.4 717.6,450.3 700.5,488.1 662.6,470.9 
		659.5,477.9 697.3,495.1 680.1,532.9 687.1,536 	"/>
	<polyline class="st50" points="184.9,297.3 107.5,354.3 113.5,400.5 	"/>
	<polyline class="st43" points="216.5,328.1 225.2,388.7 277,395.7 	"/>
	<g class="st22">
		<polyline class="st24" points="-25.2,98.5 -26.6,125.8 0.7,125.3 -0.7,152.5 26.6,152 25.2,179.3 		"/>
		<polyline class="st25" points="-25.2,98.5 -26.6,125.8 0.7,125.3 -0.7,152.5 26.6,152 25.2,179.3 		"/>
	</g>
	<g class="st22">
		<path class="st26" d="M305.3,398.8c8.8-4.6,18.1,13.2,26.9,8.6c8.9-4.6-0.4-22.3,8.5-26.9c8.9-4.6,18.1,13.2,26.9,8.6
			c8.9-4.6-0.4-22.3,8.5-26.9s18.1,13.1,26.9,8.6"/>
	</g>
	<polyline class="st51" points="610.6,244 557.3,226.8 577.8,189.7 523.2,175.5 	"/>
	<polyline class="st35" points="680.6,432 701,379.8 736.9,402.5 754.4,348.9 	"/>
	<polyline class="st41" points="465.9,295.6 491.8,309.4 469.7,384.7 	"/>
	
		<ellipse transform="matrix(0.7538 -0.6571 0.6571 0.7538 54.584 483.4118)" class="st52" cx="672.4" cy="168.9" rx="32.7" ry="32.7"/>
	<path class="st18" d="M548.3,515.4c10,11.5,27.5,12.7,39,2.7c11.5-10,12.7-27.5,2.7-39c-10-11.5-27.5-12.7-39-2.7
		C539.5,486.4,538.3,503.8,548.3,515.4z M577.3,490.1c3.9,4.5,3.4,11.3-1,15.2c-4.5,3.9-11.3,3.4-15.2-1c-3.9-4.5-3.4-11.3,1-15.2
		C566.6,485.2,573.4,485.6,577.3,490.1z"/>
	<polyline class="st39" points="523.2,116.6 595.2,135.9 619.7,110.1 	"/>
</g>
</svg>
